<svg id="Layer_1" data-name="Layer 1" xmlns="http://www.w3.org/2000/svg" viewBox="0 0 983.38 350.18"><defs><style>.cls-1{fill:#555;}.cls-2{fill:#fff;}.cls-3{fill:#d50000;}</style></defs><title>bombNomLogo</title><path class="cls-1" d="M461.34,200.26l-35.57,35.57L443.89,254a16.35,16.35,0,0,1,0,23.19L432,289.05A142.31,142.31,0,1,1,360.85,218l11.9-11.91a16.35,16.35,0,0,1,23.19,0l18.13,18.13,35.57-35.57Zm40.7-19.5H485.62a8.21,8.21,0,1,0,0,16.42H502a8.21,8.21,0,0,0,0-16.42Zm-41-41a8.23,8.23,0,0,0-8.21,8.21v16.42a8.21,8.21,0,0,0,16.42,0V147.93A8.23,8.23,0,0,0,461,139.72Zm23.19,37.62,11.63-11.63a8.22,8.22,0,0,0-11.63-11.63l-11.63,11.63a8.22,8.22,0,0,0,11.63,11.63Zm-46.38,0a8.22,8.22,0,0,0,11.63-11.63l-11.63-11.63a8.22,8.22,0,0,0-11.63,11.63Zm46.38,23.26a8.22,8.22,0,0,0-11.63,11.63l11.63,11.63a8.22,8.22,0,1,0,11.63-11.63ZM236.62,325.79A43.82,43.82,0,0,1,280.4,282a10.95,10.95,0,0,0,0-21.89,65.77,65.77,0,0,0-65.67,65.67,10.95,10.95,0,0,0,21.89,0Z" transform="translate(-160 -139.72)"/><path class="cls-2" d="M688.73,240.9V417.11q0,5.17-2.15,7.48c-1.43,1.54-3.76,2.31-7,2.31h-38q-4.81,0-7-2.31c-1.44-1.54-2.15-4-2.15-7.48V383.66l-43.29-56.29v89.74c0,.43,0,.85,0,1.25-.16,2.81-.87,4.88-2.12,6.23q-2.16,2.31-7,2.31h-38q-4.81,0-7-2.31c-1.44-1.54-2.15-4-2.15-7.48V240.9c0-3.45.71-5.94,2.15-7.48s3.75-2.32,7-2.32h26.33a19,19,0,0,1,8.23,1.64,20,20,0,0,1,6.7,5.71l17.48,21.49,31.64,38.88V240.9c0-3.45.71-5.94,2.15-7.48s3.75-2.32,7-2.32h38c3.2,0,5.53.78,7,2.32S688.73,237.45,688.73,240.9ZM662.15,402.43V255.58h-2.53V370.34L566.46,257.76a15.81,15.81,0,0,0-2-1.91,3,3,0,0,0-1.77-.54,3.23,3.23,0,0,0-2,.81,3,3,0,0,0-1,2.45V402.43h2.53V259.11a1.22,1.22,0,0,1,.13-.54.4.4,0,0,1,.38-.27,1.2,1.2,0,0,1,.63.27,5.15,5.15,0,0,1,.63.54l95.69,115.31v28Z" transform="translate(-160 -139.72)"/><path class="cls-3" d="M691.26,240.9V417.11h-2.53V240.9q0-5.18-2.15-7.48c-1.43-1.54-3.76-2.32-7-2.32h-38c-3.21,0-5.53.78-7,2.32s-2.15,4-2.15,7.48v57.92L600.9,259.94l2-1.64,30.63-27.47a9.65,9.65,0,0,1,3.41-1.76,15.63,15.63,0,0,1,4.69-.68h38c4,0,7,1,8.86,3S691.26,236.54,691.26,240.9Z" transform="translate(-160 -139.72)"/><path class="cls-3" d="M688.73,417.11h2.53a17.67,17.67,0,0,1-.88,6,10,10,0,0,1-2.66,4.08l-32.91,29.37a8.3,8.3,0,0,1-3.16,1.91,13.24,13.24,0,0,1-4.69.81H609q-6.07,0-8.86-3c-1.86-2-2.78-5.16-2.78-9.52V414.39l-5.57-7.34v10.06c0,.48,0,.95,0,1.4l-2.52-.15c0-.4,0-.82,0-1.25V327.37l43.29,56.29v33.45c0,3.45.71,5.94,2.15,7.48s3.75,2.31,7,2.31h38c3.2,0,5.53-.77,7-2.31S688.73,420.56,688.73,417.11Z" transform="translate(-160 -139.72)"/><path class="cls-3" d="M662.15,255.58V402.43h-2.53v-28L563.93,259.11a5.15,5.15,0,0,0-.63-.54,1.2,1.2,0,0,0-.63-.27.4.4,0,0,0-.38.27,1.22,1.22,0,0,0-.13.54V402.43h-2.53V258.57a3,3,0,0,1,1-2.45,3.23,3.23,0,0,1,2-.81,3,3,0,0,1,1.77.54,15.81,15.81,0,0,1,2,1.91l93.16,112.58V255.58Z" transform="translate(-160 -139.72)"/><path class="cls-3" d="M585.45,236.54l17.47,21.76-2,1.64-17.48-21.49a20,20,0,0,0-6.7-5.71,19,19,0,0,0-8.23-1.64H542.16c-3.21,0-5.53.78-7,2.32s-2.15,4-2.15,7.48V417.11c0,3.45.71,5.94,2.15,7.48s3.75,2.31,7,2.31h38q4.82,0,7-2.31c1.25-1.35,2-3.42,2.12-6.23l2.52.15a16.18,16.18,0,0,1-.85,4.58,10,10,0,0,1-2.66,4.08l-32.9,29.37a8.43,8.43,0,0,1-3.17,1.91,13.18,13.18,0,0,1-4.68.81h-38c-4.05,0-7-1-8.86-3s-2.79-5.16-2.79-9.52V270.54a17.51,17.51,0,0,1,.89-6,10.06,10.06,0,0,1,2.66-4.08l32.65-29.64a9.62,9.62,0,0,1,3.42-1.76,15.52,15.52,0,0,1,4.68-.68h26.33a20.8,20.8,0,0,1,9.37,1.9A25.85,25.85,0,0,1,585.45,236.54Z" transform="translate(-160 -139.72)"/><path class="cls-2" d="M873.28,289v80.22q0,15.24-10.38,24.61t-38.48,9.38q-28.09,0-38.23-9.38t-10.12-24.61V289q0-15.22,10.12-24.61T824.42,255q28.1,0,38.48,9.38T873.28,289Zm-27.09,76.69V292.56a11.84,11.84,0,0,0-3.8-8.83q-3.79-3.68-17.47-3.68t-17.46,3.68a11.84,11.84,0,0,0-3.8,8.83v73.16a12.18,12.18,0,0,0,3.8,9.11q3.79,3.66,17.46,3.67t17.47-3.67A12.18,12.18,0,0,0,846.19,365.72Z" transform="translate(-160 -139.72)"/><path class="cls-2" d="M903.4,282.77v92.74a71.08,71.08,0,0,1-3.42,22.7,37.87,37.87,0,0,1-12.15,17.41q-8.73,7.2-24.05,11.28T824.92,431q-23.53,0-39-4.08t-24.18-11.28a37.87,37.87,0,0,1-12.15-17.41,71.36,71.36,0,0,1-3.41-22.7V282.77a71.41,71.41,0,0,1,3.41-22.7,38.7,38.7,0,0,1,12.15-17.54q8.75-7.35,24.18-11.43t39-4.07q23.55,0,38.86,4.07t24.05,11.43A38.7,38.7,0,0,1,900,260.07,71.12,71.12,0,0,1,903.4,282.77Zm-27.59,86.48V289q0-16.32-10.89-26.52t-40.5-10.19q-29.62,0-40.25,10.19T773.54,289v80.22q0,16.32,10.63,26.52T824.42,406q29.61,0,40.5-10.19T875.81,369.25Z" transform="translate(-160 -139.72)"/><path class="cls-3" d="M807.46,374.83a12.18,12.18,0,0,1-3.8-9.11V292.56a11.84,11.84,0,0,1,3.8-8.83q3.79-3.68,17.46-3.68t17.47,3.68a11.84,11.84,0,0,1,3.8,8.83v73.16a12.18,12.18,0,0,1-3.8,9.11q-3.79,3.66-17.47,3.67T807.46,374.83Zm-.25-4.36a7.76,7.76,0,0,0,3.79,3.4V322.21a10.66,10.66,0,0,0-1-4.76,6.73,6.73,0,0,0-3.8-3.13v51.4A10.48,10.48,0,0,0,807.21,370.47Z" transform="translate(-160 -139.72)"/><path class="cls-3" d="M773.54,289q0-16.32,10.63-26.52t40.25-10.19q29.61,0,40.5,10.19T875.81,289v80.22q0,16.32-10.89,26.52T824.42,406q-29.62,0-40.25-10.19t-10.63-26.52Zm2.53,80.22q0,15.24,10.12,24.61t38.23,9.38q28.1,0,38.48-9.38t10.38-24.61V289q0-15.22-10.38-24.61T824.42,255q-28.09,0-38.23,9.38T776.07,289Z" transform="translate(-160 -139.72)"/><path class="cls-3" d="M759.11,241.44q8.85-8.16,24.68-12.65t41.13-4.48q24.81,0,40.63,4.35t24.81,12.1a39.28,39.28,0,0,1,12.28,18.49,80.16,80.16,0,0,1,3.29,23.52v92.74a77.75,77.75,0,0,1-3.29,23.11,39.58,39.58,0,0,1-11.9,18.22l-32.65,29.37q-8.87,8.16-24.81,12.65t-41,4.48q-24.81,0-40.63-5.57T726.83,443a49.71,49.71,0,0,1-12.4-21.21A89.65,89.65,0,0,1,711,397V312.42a78.92,78.92,0,0,1,3.29-23.26,39.56,39.56,0,0,1,11.9-18.35ZM824.92,227q-23.53,0-39,4.07t-24.18,11.43a38.7,38.7,0,0,0-12.15,17.54,71.41,71.41,0,0,0-3.41,22.7v92.74a71.36,71.36,0,0,0,3.41,22.7,37.87,37.87,0,0,0,12.15,17.41q8.75,7.2,24.18,11.28t39,4.08q23.55,0,38.86-4.08t24.05-11.28A37.87,37.87,0,0,0,900,398.21a71.08,71.08,0,0,0,3.42-22.7V282.77a71.12,71.12,0,0,0-3.42-22.7,38.7,38.7,0,0,0-12.15-17.54q-8.73-7.35-24.05-11.43T824.92,227Z" transform="translate(-160 -139.72)"/><path class="cls-3" d="M1143.38,240.9V417.11c0,.48,0,.95,0,1.4l-2.52-.15c0-.4,0-.82,0-1.25V240.9q0-5.18-2.15-7.48c-1.44-1.54-3.76-2.32-7-2.32h-41A11.21,11.21,0,0,0,1084,233a17.66,17.66,0,0,0-4.94,6.25l-22.53,44.33a21.37,21.37,0,0,1-2.15,3.53,2.92,2.92,0,0,1-2.41,1.09h-2.27a2.92,2.92,0,0,1-2.41-1.09,21.37,21.37,0,0,1-2.15-3.53L1039.72,273l2.15-1.1,2.28-4.36c.67-1.26,1.39-2.48,2.15-3.67a13.45,13.45,0,0,1,2.4-2.85l32.66-29.37a15.38,15.38,0,0,1,4.18-2.45,14.73,14.73,0,0,1,5.19-.81h41c4,0,7,1,8.86,3S1143.38,236.54,1143.38,240.9Z" transform="translate(-160 -139.72)"/><path class="cls-3" d="M1140.82,418.36l2.52.15a16.18,16.18,0,0,1-.85,4.58,10.11,10.11,0,0,1-2.65,4.08l-32.91,29.37a8.43,8.43,0,0,1-3.17,1.91,13.18,13.18,0,0,1-4.68.81h-39q-6.33,0-9-3c-1.77-2-2.66-5.16-2.66-9.52V375l-14.94,13.33a13.22,13.22,0,0,1-4.68,2.85,18.24,18.24,0,0,1-6.2.95h-3.29v25c0,.48,0,.95,0,1.4l-2.52-.15c0-.4,0-.82,0-1.25V321.39L1031.74,351a16,16,0,0,0,5.45,6.66,14.4,14.4,0,0,0,8,2h10.13a14.45,14.45,0,0,0,8-2,16.07,16.07,0,0,0,5.44-6.66l14.94-29.64v95.72c0,3.45.71,5.94,2.15,7.48s3.75,2.31,7,2.31h39q4.8,0,7-2.31C1140,423.24,1140.66,421.17,1140.82,418.36Z" transform="translate(-160 -139.72)"/><path class="cls-2" d="M1140.85,240.9V417.11c0,.43,0,.85,0,1.25-.16,2.81-.87,4.88-2.12,6.23q-2.16,2.31-7,2.31h-39q-4.82,0-7-2.31c-1.44-1.54-2.15-4-2.15-7.48V321.39L1068.7,351a16.07,16.07,0,0,1-5.44,6.66,14.45,14.45,0,0,1-8,2h-10.13a14.4,14.4,0,0,1-8-2,16,16,0,0,1-5.45-6.66l-14.93-29.64v95.72c0,.43,0,.85,0,1.25-.16,2.81-.87,4.88-2.12,6.23q-2.16,2.31-7,2.31H970q-4.82,0-7-2.31t-2.15-7.48V240.9q0-5.18,2.15-7.48c1.44-1.54,3.76-2.32,7-2.32h40.75a11.23,11.23,0,0,1,6.71,1.91,17.66,17.66,0,0,1,4.94,6.25L1039.72,273l5.44,10.59a21.37,21.37,0,0,0,2.15,3.53,2.92,2.92,0,0,0,2.41,1.09H1052a2.92,2.92,0,0,0,2.41-1.09,21.37,21.37,0,0,0,2.15-3.53l22.53-44.33A17.66,17.66,0,0,1,1084,233a11.21,11.21,0,0,1,6.71-1.91h41c3.2,0,5.52.78,7,2.32S1140.85,237.45,1140.85,240.9Zm-28.61,161.53V264q0-4.35-1.64-6.39t-5.19-2h-4.31a7.88,7.88,0,0,0-7.34,4.62l-30.88,50.58a66.82,66.82,0,0,1-6.33,9.25q-2,2.18-6.58,2.18t-6.58-2.18a66.82,66.82,0,0,1-6.33-9.25l-30.89-50.58a8.34,8.34,0,0,0-3.54-3.67,9.51,9.51,0,0,0-4-.95h-4.3a6,6,0,0,0-4.94,2c-1.1,1.36-1.64,3.49-1.64,6.39V402.43h2.53V264a9.82,9.82,0,0,1,.76-3.94c.5-1.18,1.6-1.77,3.29-1.77h3.79a8.74,8.74,0,0,1,3.17.54c.92.37,1.9,1.46,2.91,3.27l30.88,50a82.29,82.29,0,0,0,7,10.07c1.6,1.81,4.25,2.71,8,2.71s6.37-.9,8-2.71a82.29,82.29,0,0,0,7-10.07l30.88-50q1.51-2.72,2.78-3.27a7.76,7.76,0,0,1,3-.54h3.8a3.47,3.47,0,0,1,3.42,1.77,8.67,8.67,0,0,1,.88,3.94V402.43Z" transform="translate(-160 -139.72)"/><path class="cls-3" d="M1112.24,264V402.43h-2.53V264a8.67,8.67,0,0,0-.88-3.94,3.47,3.47,0,0,0-3.42-1.77h-3.8a7.76,7.76,0,0,0-3,.54q-1.26.56-2.78,3.27l-30.88,50a82.29,82.29,0,0,1-7,10.07q-2.4,2.71-8,2.71c-3.72,0-6.37-.9-8-2.71a82.29,82.29,0,0,1-7-10.07l-30.88-50c-1-1.81-2-2.9-2.91-3.27a8.74,8.74,0,0,0-3.17-.54h-3.79c-1.69,0-2.79.59-3.29,1.77a9.82,9.82,0,0,0-.76,3.94V402.43H987.7V264c0-2.9.54-5,1.64-6.39a6,6,0,0,1,4.94-2h4.3a9.51,9.51,0,0,1,4,.95,8.34,8.34,0,0,1,3.54,3.67l30.89,50.58a66.82,66.82,0,0,0,6.33,9.25q2,2.18,6.58,2.18t6.58-2.18a66.82,66.82,0,0,0,6.33-9.25l30.88-50.58a7.88,7.88,0,0,1,7.34-4.62h4.31q3.54,0,5.19,2T1112.24,264Z" transform="translate(-160 -139.72)"/><path class="cls-3" d="M1024.66,237.9l17.21,34-2.15,1.1-17.34-33.74a17.66,17.66,0,0,0-4.94-6.25,11.23,11.23,0,0,0-6.71-1.91H970c-3.21,0-5.53.78-7,2.32s-2.15,4-2.15,7.48V417.11q0,5.17,2.15,7.48t7,2.31h37.71q4.81,0,7-2.31c1.25-1.35,2-3.42,2.12-6.23l2.52.15a16.18,16.18,0,0,1-.85,4.58,10,10,0,0,1-2.66,4.08l-32.9,29.37a8.43,8.43,0,0,1-3.17,1.91,13.18,13.18,0,0,1-4.68.81H937.32c-4.05,0-7-1-8.86-3s-2.79-5.16-2.79-9.52V270.54a17.76,17.76,0,0,1,.89-6,10.16,10.16,0,0,1,2.66-4.08l32.66-29.64a9.65,9.65,0,0,1,3.41-1.76,15.59,15.59,0,0,1,4.69-.68h40.75a13.8,13.8,0,0,1,8,2.17A20.7,20.7,0,0,1,1024.66,237.9Z" transform="translate(-160 -139.72)"/></svg>