<svg id="Layer_1" data-name="Layer 1" xmlns="http://www.w3.org/2000/svg" viewBox="0 0 620.94 685.11"><defs><style>.cls-1{font-size:323.41px;}.cls-1,.cls-3{fill:#dc758f;}.cls-1,.cls-2,.cls-3{font-family:MeriendaOne-Regular, Merienda One;}.cls-2{font-size:334.42px;fill:#00ba96;}.cls-3{font-size:256px;}.cls-4{fill:#343536;}.cls-5{fill:#fff;}</style></defs><title>quizBakerLogo</title><text class="cls-1" transform="translate(138.19 423.64)">Q</text><text class="cls-2" transform="translate(393.87 490.87)">B</text><text class="cls-3" transform="translate(244.03 597.56)">.</text><path class="cls-4" d="M593.84,210.34A23.14,23.14,0,0,1,592.31,243l-99.83,90.89a23.12,23.12,0,0,1-32.67-1.54L402.26,269a62.28,62.28,0,0,1-58.48-106.11,59.19,59.19,0,0,1,8.71-6.39,67.74,67.74,0,0,1,76.25-69.42A59.23,59.23,0,0,1,435.92,79a62.27,62.27,0,0,1,100.21,68Zm-9.16,24.27a11.8,11.8,0,0,0,.78-16.64l-15-16.42L453.28,308.29l14.92,16.43a11.77,11.77,0,0,0,16.65.79Zm-21.79-41.44L525.43,152a5.26,5.26,0,0,1-.59-.75,5.66,5.66,0,0,1-.9-2.26,5.58,5.58,0,0,1,.14-2.43,5,5,0,0,1,.33-.89,50.95,50.95,0,0,0-80.87-58.37c-.81.74-1.58,1.62-2.36,2.45a67.44,67.44,0,0,1,29.43,18.87,5.66,5.66,0,1,1-8.37,7.62,56.64,56.64,0,0,0-83.77,76.27,5.66,5.66,0,1,1-8.37,7.63,67.48,67.48,0,0,1-16-31.06c-.9.7-1.85,1.38-2.66,2.12a51,51,0,0,0,50.69,85.94,5.56,5.56,0,0,1,1-.26,5.47,5.47,0,0,1,2.35.08,5.72,5.72,0,0,1,2.24,1.13,5.87,5.87,0,0,1,.67.65l37.34,41.13Z" transform="translate(-323.44 -62.75)"/><path class="cls-5" d="M585.46,218a11.8,11.8,0,0,1-.78,16.64l-99.83,90.9a11.77,11.77,0,0,1-16.65-.79l-14.92-16.43L570.51,201.55Z" transform="translate(-323.44 -62.75)"/><path class="cls-5" d="M525.43,152l37.46,41.13L445.66,299.91l-37.34-41.13a5.87,5.87,0,0,0-.67-.65,5.72,5.72,0,0,0-2.24-1.13,5.47,5.47,0,0,0-2.35-.08,5.56,5.56,0,0,0-1,.26,51,51,0,0,1-50.69-85.94c.81-.74,1.76-1.42,2.66-2.12a67.48,67.48,0,0,0,16,31.06,5.66,5.66,0,1,0,8.37-7.63,56.64,56.64,0,0,1,83.77-76.27,5.66,5.66,0,1,0,8.37-7.62,67.44,67.44,0,0,0-29.43-18.87c.78-.83,1.55-1.71,2.36-2.45a50.95,50.95,0,0,1,80.87,58.37,5,5,0,0,0-.33.89,5.58,5.58,0,0,0-.14,2.43,5.66,5.66,0,0,0,.9,2.26A5.26,5.26,0,0,0,525.43,152Zm-10.55,38.88a5.64,5.64,0,0,0,1.84-4.48c-.15-2.94-1.77-29.09-11.79-40.09a5.66,5.66,0,1,0-8.37,7.63c5.5,6,8.34,23.48,8.85,33.05a5.66,5.66,0,0,0,9.47,3.89Zm-33.51,30.51a5.66,5.66,0,0,0,.38-8L458.86,188.3a5.66,5.66,0,1,0-8.37,7.63l22.88,25.13A5.66,5.66,0,0,0,481.37,221.43Zm-31.71,27.14a5.68,5.68,0,0,0-4.79-6.43c-9.47-1.38-26.56-5.83-32.08-11.89a5.66,5.66,0,1,0-8.37,7.63c10,11,35.89,15.05,38.81,15.48a5.67,5.67,0,0,0,6.43-4.79Z" transform="translate(-323.44 -62.75)"/><path class="cls-4" d="M516.72,186.44a5.66,5.66,0,1,1-11.31.59c-.51-9.57-3.35-27-8.85-33.05a5.66,5.66,0,1,1,8.37-7.63C515,157.35,516.57,183.5,516.72,186.44Z" transform="translate(-323.44 -62.75)"/><path class="cls-4" d="M481.75,213.43a5.67,5.67,0,0,1-8.38,7.63l-22.88-25.13a5.66,5.66,0,1,1,8.37-7.63Z" transform="translate(-323.44 -62.75)"/><path class="cls-4" d="M444.87,242.14a5.67,5.67,0,1,1-1.64,11.22c-2.92-.43-28.8-4.49-38.81-15.48a5.66,5.66,0,1,1,8.37-7.63C418.31,236.31,435.4,240.76,444.87,242.14Z" transform="translate(-323.44 -62.75)"/></svg>