<svg id="Layer_1" data-name="Layer 1" xmlns="http://www.w3.org/2000/svg" viewBox="0 0 600.88 600.38"><defs><style>.cls-1{fill:#dc758f;}.cls-2{fill:#00ba96;}.cls-3{fill:#343536;}.cls-4{fill:#fff;}</style></defs><title>quizBakerLogo2</title><path class="cls-1" d="M541.51,536.85q-37.18-11.33-62.74-12,13.91-23.61,43-23.61h.33q30.39-3.56,54.49-15.52t38.81-28a148.59,148.59,0,0,0,24.42-36.07A175.71,175.71,0,0,0,657,345.07q0-54-22.64-77.94-12-12.61-31.05-12.61T566.41,273q-17.79,18.44-27.65,46.25a169,169,0,0,0-9.86,56.92q0,57.56,24.9,57.56,10.68,0,17.3-9.22t6.63-24.09q0-14.87-4-24.25t-7.92-12.94l-4.21-3.56q10-3.89,23.45-3.88t26.36,9.86q12.93,9.87,12.93,30.57,0,31.36-20.53,49.64t-48.35,18.27q-27.82,0-50-23.45T483.3,374.5a161.39,161.39,0,0,1,20.05-78.27,147.93,147.93,0,0,1,26.2-34.6q15.53-15.19,39-24.58t51.9-9.38q35.58,0,60,27.17t24.42,77.94q0,45-18.11,83.76a172.56,172.56,0,0,1-25.87,39q-15.52,17.63-40.75,32.34t-57.24,22.48q124.83,39.12,153.94,39.13Q709,567.9,697.23,577.6t-24.74,9.7q-12.93,0-62.74-22.48T541.51,536.85Z" transform="translate(-323.44 -62.75)"/><path class="cls-2" d="M742.4,535.91q.33-2.68,7.35-49.83,14.71-98.32,14.72-178.25,0-26.41-4.68-37.45,35.78,9.36,44.81,29.43a110.06,110.06,0,0,1,54.51-14.38q28.75,0,47,16.22t18.23,39.46q0,23.24-16.72,43.14t-45.82,29.59q23.41,5,43,22.58t19.56,43.3q0,39.46-29.26,60.7t-73.91,21.24Q776.51,561.66,742.4,535.91ZM867.8,323.72q-9.36-10.2-26.42-10.2a79.5,79.5,0,0,0-32.77,7q0,20.4-8.86,102.67t-8.86,105.34a74.94,74.94,0,0,0,28.42,6q23.75,0,39.13-15.72t15.38-39.46q0-23.75-16.05-39.63T813,422.54l-1-12q30.75-4.35,48-22.57t17.22-39Q877.17,333.91,867.8,323.72Z" transform="translate(-323.44 -62.75)"/><path class="cls-1" d="M612.27,660.57a65.69,65.69,0,0,1-18.17,2.56q-18.95,0-19-15.87,0-5.12,4.61-21.76a66.08,66.08,0,0,1,18.18-2.56q18.94,0,18.94,15.87Q616.88,643.94,612.27,660.57Z" transform="translate(-323.44 -62.75)"/><path class="cls-3" d="M593.84,210.34A23.14,23.14,0,0,1,592.31,243l-99.83,90.89a23.12,23.12,0,0,1-32.67-1.54L402.26,269a62.28,62.28,0,0,1-58.48-106.11,59.19,59.19,0,0,1,8.71-6.39,67.74,67.74,0,0,1,76.25-69.42A59.23,59.23,0,0,1,435.92,79a62.27,62.27,0,0,1,100.21,68Zm-9.16,24.27a11.8,11.8,0,0,0,.78-16.64l-15-16.42L453.28,308.29l14.92,16.43a11.77,11.77,0,0,0,16.65.79Zm-21.79-41.44L525.43,152a5.26,5.26,0,0,1-.59-.75,5.66,5.66,0,0,1-.9-2.26,5.58,5.58,0,0,1,.14-2.43,5,5,0,0,1,.33-.89,50.95,50.95,0,0,0-80.87-58.37c-.81.74-1.58,1.62-2.36,2.45a67.44,67.44,0,0,1,29.43,18.87,5.66,5.66,0,1,1-8.37,7.62,56.64,56.64,0,0,0-83.77,76.27,5.66,5.66,0,1,1-8.37,7.63,67.48,67.48,0,0,1-16-31.06c-.9.7-1.85,1.38-2.66,2.12a51,51,0,0,0,50.69,85.94,5.56,5.56,0,0,1,1-.26,5.47,5.47,0,0,1,2.35.08,5.72,5.72,0,0,1,2.24,1.13,5.87,5.87,0,0,1,.67.65l37.34,41.13Z" transform="translate(-323.44 -62.75)"/><path class="cls-4" d="M585.46,218a11.8,11.8,0,0,1-.78,16.64l-99.83,90.9a11.77,11.77,0,0,1-16.65-.79l-14.92-16.43L570.51,201.55Z" transform="translate(-323.44 -62.75)"/><path class="cls-4" d="M525.43,152l37.46,41.13L445.66,299.91l-37.34-41.13a5.87,5.87,0,0,0-.67-.65,5.72,5.72,0,0,0-2.24-1.13,5.47,5.47,0,0,0-2.35-.08,5.56,5.56,0,0,0-1,.26,51,51,0,0,1-50.69-85.94c.81-.74,1.76-1.42,2.66-2.12a67.48,67.48,0,0,0,16,31.06,5.66,5.66,0,1,0,8.37-7.63,56.64,56.64,0,0,1,83.77-76.27,5.66,5.66,0,1,0,8.37-7.62,67.44,67.44,0,0,0-29.43-18.87c.78-.83,1.55-1.71,2.36-2.45a50.95,50.95,0,0,1,80.87,58.37,5,5,0,0,0-.33.89,5.58,5.58,0,0,0-.14,2.43,5.66,5.66,0,0,0,.9,2.26A5.26,5.26,0,0,0,525.43,152Zm-10.55,38.88a5.64,5.64,0,0,0,1.84-4.48c-.15-2.94-1.77-29.09-11.79-40.09a5.66,5.66,0,1,0-8.37,7.63c5.5,6,8.34,23.48,8.85,33.05a5.66,5.66,0,0,0,9.47,3.89Zm-33.51,30.51a5.66,5.66,0,0,0,.38-8L458.86,188.3a5.66,5.66,0,1,0-8.37,7.63l22.88,25.13A5.66,5.66,0,0,0,481.37,221.43Zm-31.71,27.14a5.68,5.68,0,0,0-4.79-6.43c-9.47-1.38-26.56-5.83-32.08-11.89a5.66,5.66,0,1,0-8.37,7.63c10,11,35.89,15.05,38.81,15.48a5.67,5.67,0,0,0,6.43-4.79Z" transform="translate(-323.44 -62.75)"/><path class="cls-3" d="M516.72,186.44a5.66,5.66,0,1,1-11.31.59c-.51-9.57-3.35-27-8.85-33.05a5.66,5.66,0,1,1,8.37-7.63C515,157.35,516.57,183.5,516.72,186.44Z" transform="translate(-323.44 -62.75)"/><path class="cls-3" d="M481.75,213.43a5.67,5.67,0,0,1-8.38,7.63l-22.88-25.13a5.66,5.66,0,1,1,8.37-7.63Z" transform="translate(-323.44 -62.75)"/><path class="cls-3" d="M444.87,242.14a5.67,5.67,0,1,1-1.64,11.22c-2.92-.43-28.8-4.49-38.81-15.48a5.66,5.66,0,1,1,8.37-7.63C418.31,236.31,435.4,240.76,444.87,242.14Z" transform="translate(-323.44 -62.75)"/></svg>